<?xml version="1.0" standalone="no"?>
<!DOCTYPE svg PUBLIC "-//W3C//DTD SVG 20010904//EN"
 "http://www.w3.org/TR/2001/REC-SVG-20010904/DTD/svg10.dtd">
<svg version="1.0" xmlns="http://www.w3.org/2000/svg"
 width="400.000000pt" height="400.000000pt" viewBox="0 0 400.000000 400.000000"
 preserveAspectRatio="xMidYMid meet">
<metadata>
Created by potrace 1.14, written by Peter Selinger 2001-2017
</metadata>
<g transform="translate(0.000000,400.000000) scale(0.100000,-0.100000)"
fill="#000000" stroke="none">
<path d="M549 3990 c-164 -16 -286 -74 -389 -186 -72 -78 -114 -160 -137 -264
-17 -80 -18 -168 -18 -1545 0 -1374 1 -1465 18 -1537 28 -118 69 -192 156
-278 91 -90 165 -132 281 -157 80 -17 168 -18 1545 -18 1374 0 1465 1 1537 18
118 28 192 69 278 156 90 91 132 165 157 281 17 80 18 168 18 1545 0 1374 -1
1465 -18 1537 -28 118 -69 192 -156 278 -87 87 -163 130 -271 156 -70 17 -171
18 -1500 20 -784 1 -1459 -2 -1501 -6z m614 -389 c159 -77 335 -90 502 -37
105 33 185 82 267 163 l67 66 81 -77 c183 -171 428 -227 665 -152 106 34 185
82 270 166 l70 70 358 -358 359 -359 -120 -239 c-138 -276 -161 -342 -169
-475 -8 -142 7 -204 117 -484 54 -137 103 -277 109 -309 60 -332 -126 -675
-435 -800 -32 -13 -219 -59 -414 -101 -393 -85 -414 -91 -515 -143 -55 -28
-102 -68 -222 -186 l-153 -149 -152 149 c-119 116 -168 158 -223 186 -98 51
-128 59 -510 142 -187 41 -371 86 -410 101 -256 96 -438 347 -452 626 -8 143
7 206 117 484 110 280 125 344 117 484 -7 130 -33 203 -173 482 l-116 232 358
358 358 358 84 -80 c62 -58 105 -89 165 -118z"/>
<path d="M1260 2859 c-172 -29 -314 -155 -390 -349 -96 -244 -102 -732 -11
-993 80 -231 225 -361 434 -388 191 -24 361 30 469 149 120 132 168 311 168
620 l0 172 -275 0 -275 0 0 -130 0 -130 110 0 110 0 0 -37 c0 -123 -41 -244
-101 -298 -45 -41 -73 -49 -140 -43 -60 6 -94 29 -131 89 -54 87 -70 179 -75
434 -6 258 8 376 53 475 44 96 90 130 174 130 62 0 101 -20 137 -72 27 -40 63
-153 63 -200 l0 -28 171 0 172 0 -7 63 c-43 384 -300 594 -656 536z"/>
<path d="M2543 2860 c-241 -44 -388 -225 -450 -554 -24 -128 -24 -494 0 -622
55 -294 176 -466 378 -535 77 -26 242 -31 329 -10 164 41 283 149 346 317 44
118 55 188 61 407 l6 207 -282 0 -281 0 0 -130 0 -130 111 0 112 0 -5 -92 c-8
-133 -49 -224 -122 -269 -37 -23 -124 -26 -164 -5 -65 34 -111 120 -138 261
-25 127 -25 463 0 588 31 161 87 248 170 265 121 25 206 -57 237 -230 l12 -68
169 0 169 0 -7 58 c-32 271 -165 461 -363 522 -75 24 -214 33 -288 20z"/>
</g>
</svg>
